<svg xmlns="http://www.w3.org/2000/svg" width="1180" height="450" viewBox="0 0 1180 450" role="img">
<rect width="1180" height="450" fill="white"/>
<style>
  text { font-family: Arial, Helvetica, sans-serif; fill: #1f2933; }
  .title { font-size: 22px; font-weight: 700; }
  .subtitle { font-size: 13px; fill: #52606d; }
  .label { font-size: 13px; font-weight: 700; }
  .small { font-size: 11px; fill: #52606d; }
</style>
<text x="36" y="42" class="title" text-anchor="start">F7. Budget-Risk Frontier In Aggregate Replay</text>
<text x="36" y="64" class="subtitle" text-anchor="start">X axis: trigger budget. Y axis: high-risk missed + critical miss.</text>
<line x1="110" y1="380" x2="830" y2="380" stroke="#1f2933" stroke-width="1.5"/>
<line x1="110" y1="110" x2="110" y2="380" stroke="#1f2933" stroke-width="1.5"/>
<line x1="110.0" y1="110" x2="110.0" y2="380" stroke="#d9e2ec" stroke-width="1"/>
<text x="110" y="404" class="small" text-anchor="middle">0.0</text>
<line x1="350.0" y1="110" x2="350.0" y2="380" stroke="#d9e2ec" stroke-width="1"/>
<text x="350" y="404" class="small" text-anchor="middle">0.2</text>
<line x1="590.0" y1="110" x2="590.0" y2="380" stroke="#d9e2ec" stroke-width="1"/>
<text x="590" y="404" class="small" text-anchor="middle">0.4</text>
<line x1="830.0" y1="110" x2="830.0" y2="380" stroke="#d9e2ec" stroke-width="1"/>
<text x="830" y="404" class="small" text-anchor="middle">0.6</text>
<line x1="110" y1="380.0" x2="830" y2="380.0" stroke="#d9e2ec" stroke-width="1"/>
<text x="98" y="384" class="small" text-anchor="end">0</text>
<line x1="110" y1="341.4" x2="830" y2="341.4" stroke="#d9e2ec" stroke-width="1"/>
<text x="98" y="345" class="small" text-anchor="end">1</text>
<line x1="110" y1="302.9" x2="830" y2="302.9" stroke="#d9e2ec" stroke-width="1"/>
<text x="98" y="306" class="small" text-anchor="end">2</text>
<line x1="110" y1="264.3" x2="830" y2="264.3" stroke="#d9e2ec" stroke-width="1"/>
<text x="98" y="268" class="small" text-anchor="end">3</text>
<line x1="110" y1="225.7" x2="830" y2="225.7" stroke="#d9e2ec" stroke-width="1"/>
<text x="98" y="229" class="small" text-anchor="end">4</text>
<line x1="110" y1="187.1" x2="830" y2="187.1" stroke="#d9e2ec" stroke-width="1"/>
<text x="98" y="191" class="small" text-anchor="end">5</text>
<line x1="110" y1="148.6" x2="830" y2="148.6" stroke="#d9e2ec" stroke-width="1"/>
<text x="98" y="152" class="small" text-anchor="end">6</text>
<line x1="110" y1="110.0" x2="830" y2="110.0" stroke="#d9e2ec" stroke-width="1"/>
<text x="98" y="114" class="small" text-anchor="end">7</text>
<circle cx="110.0" cy="110.0" r="8" fill="#d64545" stroke="white" stroke-width="2"/>
<text x="122" y="102" class="label" text-anchor="start">None</text>
<text x="122" y="120" class="small" text-anchor="start">trig 0, abstain 0</text>
<circle cx="110.0" cy="110.0" r="8" fill="#f2994a" stroke="white" stroke-width="2"/>
<text x="122" y="102" class="label" text-anchor="start">Conf. unavailable</text>
<text x="122" y="120" class="small" text-anchor="start">trig 0, abstain 0</text>
<circle cx="576.7" cy="380.0" r="8" fill="#219653" stroke="white" stroke-width="2"/>
<text x="588" y="372" class="label" text-anchor="start">SRES</text>
<text x="588" y="390" class="small" text-anchor="start">trig 35, abstain 0</text>
<circle cx="576.7" cy="380.0" r="8" fill="#2f80ed" stroke="white" stroke-width="2"/>
<text x="588" y="372" class="label" text-anchor="start">CEIS</text>
<text x="588" y="390" class="small" text-anchor="start">trig 35, abstain 0</text>
<circle cx="736.6" cy="380.0" r="8" fill="#7b61ff" stroke="white" stroke-width="2"/>
<text x="748" y="372" class="label" text-anchor="start">CEIS ensemble</text>
<text x="748" y="390" class="small" text-anchor="start">trig 47, abstain 18</text>
<text x="110" y="418" class="label" text-anchor="start">Recovery budget</text>
<text x="870" y="150" class="label" text-anchor="start">Replay interpretation</text>
<text x="870" y="176" class="small" text-anchor="start">No recovery and confidence-unavailable</text>
<text x="870" y="196" class="small" text-anchor="start">remain at 7 severe misses.</text>
<text x="870" y="226" class="small" text-anchor="start">SRES and CEIS reach 0 severe misses</text>
<text x="870" y="246" class="small" text-anchor="start">at budget 0.3889.</text>
<text x="870" y="276" class="small" text-anchor="start">CEIS ensemble also reaches 0</text>
<text x="870" y="296" class="small" text-anchor="start">with abstention at budget 0.5222.</text>
</svg>
